name D:\school\WTK\thesis\model\3dpredictsim\Results\Batchsim_tmt_linear\Pog_s1_tmt_bCst_d02_k800_ig24_act.mot
datacolumns 128
datarows 4
range 1.24779927 1.28523324
endheader
time	pelvis_tilt	pelvis_list	pelvis_rotation	pelvis_tx	pelvis_ty	pelvis_tz	hip_flexion_l	hip_adduction_l	hip_rotation_l	hip_flexion_r	hip_adduction_r	hip_rotation_r	knee_angle_l	knee_angle_r	ankle_angle_l	ankle_angle_r	subtalar_angle_l	subtalar_angle_r	tmt_angle_l	tmt_angle_r	mtp_angle_l	mtp_angle_r	lumbar_extension	lumbar_bending	lumbar_rotation	arm_flex_l	arm_add_l	arm_rot_l	arm_flex_r	arm_add_r	arm_rot_r	elbow_flex_l	elbow_flex_r	pro_sup_l	pro_sup_r	glut_med1_l/activation	glut_med2_l/activation	glut_med3_l/activation	glut_min1_l/activation	glut_min2_l/activation	glut_min3_l/activation	semimem_l/activation	semiten_l/activation	bifemlh_l/activation	bifemsh_l/activation	sar_l/activation	add_long_l/activation	add_brev_l/activation	add_mag1_l/activation	add_mag2_l/activation	add_mag3_l/activation	tfl_l/activation	pect_l/activation	grac_l/activation	glut_max1_l/activation	glut_max2_l/activation	glut_max3_l/activation	iliacus_l/activation	psoas_l/activation	quad_fem_l/activation	gem_l/activation	peri_l/activation	rect_fem_l/activation	vas_med_l/activation	vas_int_l/activation	vas_lat_l/activation	med_gas_l/activation	lat_gas_l/activation	soleus_l/activation	tib_post_l/activation	flex_dig_l/activation	flex_hal_l/activation	tib_ant_l/activation	per_brev_l/activation	per_long_l/activation	per_tert_l/activation	ext_dig_l/activation	ext_hal_l/activation	ercspn_l/activation	intobl_l/activation	extobl_l/activation	glut_med1_r/activation	glut_med2_r/activation	glut_med3_r/activation	glut_min1_r/activation	glut_min2_r/activation	glut_min3_r/activation	semimem_r/activation	semiten_r/activation	bifemlh_r/activation	bifemsh_r/activation	sar_r/activation	add_long_r/activation	add_brev_r/activation	add_mag1_r/activation	add_mag2_r/activation	add_mag3_r/activation	tfl_r/activation	pect_r/activation	grac_r/activation	glut_max1_r/activation	glut_max2_r/activation	glut_max3_r/activation	iliacus_r/activation	psoas_r/activation	quad_fem_r/activation	gem_r/activation	peri_r/activation	rect_fem_r/activation	vas_med_r/activation	vas_int_r/activation	vas_lat_r/activation	med_gas_r/activation	lat_gas_r/activation	soleus_r/activation	tib_post_r/activation	flex_dig_r/activation	flex_hal_r/activation	tib_ant_r/activation	per_brev_r/activation	per_long_r/activation	per_tert_r/activation	ext_dig_r/activation	ext_hal_r/activation	ercspn_r/activation	intobl_r/activation	extobl_r/activation	
          1.24779927	         -2.93017634	         -1.30902781	          8.53430007	          1.55974908	          0.85508747	         -0.00240728	        -16.26953047	         -2.50890362	          7.48768835	         33.31083795	          0.89928434	         -1.03906360	        -17.60313407	        -17.00267805	        -12.14349846	          8.76738411	         13.87849114	         -0.39160849	          1.17529943	          0.02841943	         32.16192190	         -0.07477778	         -0.23847045	         -1.02278916	         -3.31269035	          2.88740051	        -13.54714682	         17.53834163	        -13.33231765	        -13.55600345	          6.45625444	         47.63371384	         19.22851126	         86.51662706	         86.51662706	          0.12369575	          0.06039808	          0.05000150	          0.17351728	          0.10847556	          0.06054728	          0.05000146	          0.05000014	          0.05000013	          0.05000030	          0.08812614	          0.12797812	          0.16571004	          0.05000180	          0.05000292	          0.05000048	          0.14930371	          0.09509754	          0.05088224	          0.05000396	          0.05000228	          0.05000144	          0.30665881	          0.48753093	          0.08050161	          0.05000145	          0.05376905	          0.29128178	          0.07295423	          0.07163103	          0.06812062	          0.12734537	          0.19872473	          0.05000000	          0.14238017	          0.17013681	          0.18322456	          0.19834765	          0.36280901	          0.32038642	          0.48140232	          0.38827013	          0.13242829	          0.05000002	          0.05000013	          0.07295901	          0.05000033	          0.05000104	          0.05000023	          0.06039830	          0.06039798	          0.05000196	          0.15064352	          0.05108446	          0.16376601	          0.06039765	          0.05591701	          0.08813357	          0.15534594	          0.12472344	          0.12886916	          0.14498289	          0.05000013	          0.07295678	          0.06041627	          0.05000038	          0.05000049	          0.17924824	          0.06039895	          0.05803988	          0.14035146	          0.22182088	          0.19557379	          0.07013701	          0.18791701	          0.18185712	          0.16174913	          0.05189388	          0.05000219	          0.05761546	          0.05000004	          0.05000205	          0.05000485	          0.61674697	          0.33421720	          0.18922504	          0.52188445	          0.62701555	          0.48275279	          0.05000004	          0.11475415	          0.10646016	
          1.26027726	         -2.92599059	         -1.25505140	          8.70057082	          1.58011935	          0.85327571	         -0.00208637	        -16.45264635	         -2.73293475	          7.26256220	         32.59430744	          1.16458803	         -0.80994333	        -18.93255953	        -17.43279199	        -14.89481812	          8.02190987	         14.23808228	         -0.81863266	          0.97268263	          0.02816323	         32.94579850	         -0.03744301	          0.03458007	         -0.85317070	         -3.41803780	          2.33878403	        -13.62000737	         17.75339825	        -14.75067926	        -13.54565794	          6.40685266	         48.85782995	         19.11052054	         86.51662706	         86.51662706	          0.10240003	          0.05000031	          0.06369918	          0.14364423	          0.08980022	          0.05012349	          0.05001261	          0.06039844	          0.06040051	          0.05000063	          0.07295439	          0.23839765	          0.22522007	          0.30765554	          0.07753213	          0.12087491	          0.12359926	          0.07872584	          0.06040837	          0.05000888	          0.05001667	          0.06040159	          0.25386369	          0.40359646	          0.07295886	          0.07295748	          0.06039903	          0.24113400	          0.06039608	          0.06905356	          0.10645794	          0.10542128	          0.16451179	          0.05000004	          0.11786765	          0.14084567	          0.15168019	          0.41727356	          0.43864237	          0.32535037	          0.71690152	          0.50178139	          0.33844258	          0.07005958	          0.06039836	          0.06039831	          0.16328272	          0.05000024	          0.16364180	          0.05000010	          0.05000011	          0.05000025	          0.12470841	          0.05000011	          0.13557168	          0.05000004	          0.05000017	          0.07296045	          0.12860137	          0.27169119	          0.23632286	          0.15523344	          0.06039781	          0.06039861	          0.05001663	          0.13443934	          0.13205418	          0.16202109	          0.05000060	          0.05000058	          0.31849681	          0.18363171	          0.16190341	          0.06039849	          0.25467664	          0.24881366	          0.22324384	          0.05000003	          0.05000010	          0.05000001	          0.06039828	          0.06039858	          0.06038823	          0.61179015	          0.39568789	          0.22789135	          0.48175485	          0.59838807	          0.39964094	          0.05000002	          0.09499779	          0.08813172	
          1.27275525	         -2.91758699	         -1.20412031	          8.82304907	          1.60050274	          0.85112843	         -0.00178622	        -16.42809258	         -2.90836017	          7.05313121	         31.69359821	          1.41508770	         -0.53366712	        -20.67121238	        -18.18274755	        -16.98291900	          7.49528384	         14.51592855	         -1.27490340	          0.70379044	         -0.00860361	         32.03350720	         -0.20335030	          0.29874998	         -0.66630279	         -3.50385112	          1.75378110	        -13.69600406	         17.89513651	        -16.08400754	        -13.55358956	          6.50062928	         50.04169401	         18.88822136	         86.51662706	         86.51662706	          0.27478882	          0.06039824	          0.05273286	          0.16187457	          0.07434021	          0.06039826	          0.05000205	          0.05000030	          0.05000195	          0.05000023	          0.06039723	          0.19735455	          0.18644577	          0.25468884	          0.06418424	          0.10006493	          0.10232029	          0.06517261	          0.05000866	          0.05000418	          0.05000254	          0.05000327	          0.21015792	          0.39428832	          0.06039816	          0.06039721	          0.05000099	          0.19961979	          0.05000078	          0.06239587	          0.08813084	          0.08727169	          0.13618904	          0.05000001	          0.09757527	          0.11659738	          0.12556658	          0.34543499	          0.36489456	          0.28591290	          0.71825819	          0.70362882	          0.28017554	          0.09933235	          0.05000004	          0.05000014	          0.26619365	          0.31409608	          0.42345225	          0.25314331	          0.19359405	          0.24374950	          0.10323837	          0.09881168	          0.11223143	          0.07295927	          0.05000297	          0.06039944	          0.10646108	          0.22491631	          0.19564025	          0.17332882	          0.05000016	          0.05000240	          0.05000184	          0.26168889	          0.21193181	          0.19224790	          0.05000011	          0.05000010	          0.26366422	          0.15201751	          0.30123473	          0.05000015	          0.21083096	          0.20597742	          0.18480974	          0.05000006	          0.05000009	          0.05000002	          0.05000000	          0.05000073	          0.05000033	          0.69578642	          0.37794025	          0.18865877	          0.71709436	          0.71565652	          0.51185971	          0.05000021	          0.08813228	          0.07295875	
          1.28523324	         -2.90800381	         -1.16618305	          8.89512678	          1.62050110	          0.84891874	         -0.00144110	        -16.14799694	         -3.05527821	          6.87312689	         30.83511819	          1.68486670	         -0.26604788	        -22.86340783	        -19.01705225	        -18.38820448	          7.04346184	         14.70721500	         -1.77518411	          0.50178159	         -0.02514291	         29.21513298	         -0.21281916	          0.52193962	         -0.45647403	         -3.57146100	          1.20841879	        -13.75975818	         17.97836435	        -17.23091421	        -13.56914092	          6.76969123	         51.09547936	         18.49424815	         86.51662706	         86.51662706	          0.22748060	          0.05000007	          0.05000002	          0.13400619	          0.06154171	          0.05000015	          0.05047996	          0.05000018	          0.05000019	          0.05000010	          0.05000102	          0.19277609	          0.18169284	          0.21084170	          0.05313623	          0.11076999	          0.08470464	          0.05395317	          0.05000024	          0.05000073	          0.05000051	          0.05000028	          0.17397664	          0.36941825	          0.05000004	          0.05000018	          0.05000005	          0.16525276	          0.07295920	          0.07295919	          0.07295917	          0.07224679	          0.11274241	          0.05000001	          0.08077648	          0.09652376	          0.10394877	          0.44947862	          0.33481847	          0.25584273	          0.64151111	          0.58249038	          0.23194027	          0.12843447	          0.05000000	          0.05000004	          0.38800150	          0.50877325	          0.64234119	          0.25143700	          0.35586953	          0.50049496	          0.08546461	          0.08813238	          0.09290941	          0.06039856	          0.05000026	          0.05000104	          0.08813254	          0.18619448	          0.19809223	          0.18097319	          0.05000016	          0.05000208	          0.08813155	          0.35888048	          0.27584571	          0.22292070	          0.05000005	          0.05000005	          0.21827132	          0.12584600	          0.29719679	          0.05000001	          0.32457592	          0.32247038	          0.28594722	          0.05000000	          0.05000002	          0.05000000	          0.05000026	          0.05000025	          0.05000017	          0.83393240	          0.31287312	          0.15617881	          0.59363781	          0.68639435	          0.63684225	          0.08551208	          0.07295922	          0.06039799	
